<mxfile host="app.diagrams.net" modified="2024-04-08T10:29:32.803Z" agent="Mozilla/5.0 (Macintosh; Intel Mac OS X 10_15_7) AppleWebKit/605.1.15 (KHTML, like Gecko) Version/17.4.1 Safari/605.1.15" etag="vorq0ovP3woJj8JGBim0" version="24.2.2" type="google">
  <diagram name="Page-1" id="25RpcG7y4qPPkW7NWgQS">
    <mxGraphModel grid="1" page="1" gridSize="10" guides="1" tooltips="1" connect="1" arrows="1" fold="1" pageScale="1" pageWidth="827" pageHeight="1169" math="0" shadow="0">
      <root>
        <mxCell id="0" />
        <mxCell id="1" parent="0" />
        <mxCell id="RyfOZX6px8sIg2oKjkJr-12" value="Feature Usecase" style="rounded=0;whiteSpace=wrap;html=1;" vertex="1" parent="1">
          <mxGeometry x="760" y="140" width="200" height="60" as="geometry" />
        </mxCell>
        <mxCell id="RyfOZX6px8sIg2oKjkJr-13" value="Crypto Repository" style="rounded=0;whiteSpace=wrap;html=1;" vertex="1" parent="1">
          <mxGeometry x="760" y="300" width="200" height="60" as="geometry" />
        </mxCell>
        <mxCell id="RyfOZX6px8sIg2oKjkJr-2" value="Fetch data from API" style="rounded=0;whiteSpace=wrap;html=1;fillColor=#d5e8d4;strokeColor=#82b366;" vertex="1" parent="1">
          <mxGeometry x="1150" y="140" width="120" height="60" as="geometry" />
        </mxCell>
        <mxCell id="RyfOZX6px8sIg2oKjkJr-17" value="5. encrypt&lt;div&gt;(plain text/json encode)&lt;/div&gt;" style="html=1;verticalAlign=bottom;endArrow=block;curved=0;rounded=0;entryX=0.75;entryY=0;entryDx=0;entryDy=0;exitX=0.75;exitY=1;exitDx=0;exitDy=0;" edge="1" parent="1" source="RyfOZX6px8sIg2oKjkJr-12" target="RyfOZX6px8sIg2oKjkJr-13">
          <mxGeometry x="0.0909" y="20" width="80" relative="1" as="geometry">
            <mxPoint x="610" y="230" as="sourcePoint" />
            <mxPoint x="690" y="230" as="targetPoint" />
            <mxPoint as="offset" />
          </mxGeometry>
        </mxCell>
        <mxCell id="RyfOZX6px8sIg2oKjkJr-18" value="6. return&lt;div&gt;(encrypted text)&lt;/div&gt;" style="html=1;verticalAlign=bottom;endArrow=open;dashed=1;endSize=8;curved=0;rounded=0;exitX=0.25;exitY=0;exitDx=0;exitDy=0;entryX=0.25;entryY=1;entryDx=0;entryDy=0;" edge="1" parent="1" source="RyfOZX6px8sIg2oKjkJr-13" target="RyfOZX6px8sIg2oKjkJr-12">
          <mxGeometry x="-0.0909" relative="1" as="geometry">
            <mxPoint x="690" y="230" as="sourcePoint" />
            <mxPoint x="610" y="230" as="targetPoint" />
            <mxPoint as="offset" />
          </mxGeometry>
        </mxCell>
        <mxCell id="RyfOZX6px8sIg2oKjkJr-22" value="Local Storage Repository" style="rounded=0;whiteSpace=wrap;html=1;" vertex="1" parent="1">
          <mxGeometry x="760" y="10" width="200" height="60" as="geometry" />
        </mxCell>
        <mxCell id="RyfOZX6px8sIg2oKjkJr-24" value="7. save&lt;div&gt;(encrypted text)&lt;/div&gt;" style="html=1;verticalAlign=bottom;endArrow=block;curved=0;rounded=0;entryX=0.75;entryY=1;entryDx=0;entryDy=0;exitX=0.75;exitY=0;exitDx=0;exitDy=0;" edge="1" parent="1" source="RyfOZX6px8sIg2oKjkJr-12" target="RyfOZX6px8sIg2oKjkJr-22">
          <mxGeometry x="-0.25" width="80" relative="1" as="geometry">
            <mxPoint x="760" y="70" as="sourcePoint" />
            <mxPoint x="760" y="180" as="targetPoint" />
            <mxPoint as="offset" />
          </mxGeometry>
        </mxCell>
        <mxCell id="RyfOZX6px8sIg2oKjkJr-25" value="8. return" style="html=1;verticalAlign=bottom;endArrow=open;dashed=1;endSize=8;curved=0;rounded=0;exitX=0.25;exitY=1;exitDx=0;exitDy=0;entryX=0.25;entryY=0;entryDx=0;entryDy=0;" edge="1" parent="1" source="RyfOZX6px8sIg2oKjkJr-22" target="RyfOZX6px8sIg2oKjkJr-12">
          <mxGeometry relative="1" as="geometry">
            <mxPoint x="530" y="180" as="sourcePoint" />
            <mxPoint x="530" y="70" as="targetPoint" />
            <mxPoint as="offset" />
          </mxGeometry>
        </mxCell>
        <mxCell id="RyfOZX6px8sIg2oKjkJr-26" value="View Model" style="rounded=0;whiteSpace=wrap;html=1;" vertex="1" parent="1">
          <mxGeometry x="480" y="140" width="140" height="60" as="geometry" />
        </mxCell>
        <mxCell id="RyfOZX6px8sIg2oKjkJr-27" value="UI" style="rounded=0;whiteSpace=wrap;html=1;" vertex="1" parent="1">
          <mxGeometry x="210" y="140" width="140" height="60" as="geometry" />
        </mxCell>
        <mxCell id="RyfOZX6px8sIg2oKjkJr-32" value="1. request data" style="html=1;verticalAlign=bottom;endArrow=block;curved=0;rounded=0;entryX=0;entryY=0.75;entryDx=0;entryDy=0;exitX=1;exitY=0.75;exitDx=0;exitDy=0;" edge="1" parent="1" source="RyfOZX6px8sIg2oKjkJr-27" target="RyfOZX6px8sIg2oKjkJr-26">
          <mxGeometry x="-0.0048" width="80" relative="1" as="geometry">
            <mxPoint x="720" y="150" as="sourcePoint" />
            <mxPoint x="720" y="70" as="targetPoint" />
            <mxPoint as="offset" />
          </mxGeometry>
        </mxCell>
        <mxCell id="RyfOZX6px8sIg2oKjkJr-33" value="2. request data" style="html=1;verticalAlign=bottom;endArrow=block;curved=0;rounded=0;entryX=0;entryY=0.75;entryDx=0;entryDy=0;exitX=1;exitY=0.75;exitDx=0;exitDy=0;" edge="1" parent="1" source="RyfOZX6px8sIg2oKjkJr-26" target="RyfOZX6px8sIg2oKjkJr-12">
          <mxGeometry x="-0.0048" width="80" relative="1" as="geometry">
            <mxPoint x="820" y="180" as="sourcePoint" />
            <mxPoint x="760" y="180" as="targetPoint" />
            <mxPoint as="offset" />
          </mxGeometry>
        </mxCell>
        <mxCell id="RyfOZX6px8sIg2oKjkJr-34" value="3. request data" style="html=1;verticalAlign=bottom;endArrow=block;curved=0;rounded=0;entryX=0;entryY=0.75;entryDx=0;entryDy=0;exitX=1;exitY=0.75;exitDx=0;exitDy=0;" edge="1" parent="1" source="RyfOZX6px8sIg2oKjkJr-12" target="RyfOZX6px8sIg2oKjkJr-2">
          <mxGeometry width="80" relative="1" as="geometry">
            <mxPoint x="900" y="195" as="sourcePoint" />
            <mxPoint x="770" y="195" as="targetPoint" />
            <mxPoint as="offset" />
          </mxGeometry>
        </mxCell>
        <mxCell id="RyfOZX6px8sIg2oKjkJr-37" value="4. return data" style="html=1;verticalAlign=bottom;endArrow=open;dashed=1;endSize=8;curved=0;rounded=0;entryX=1;entryY=0.25;entryDx=0;entryDy=0;" edge="1" parent="1" target="RyfOZX6px8sIg2oKjkJr-12">
          <mxGeometry relative="1" as="geometry">
            <mxPoint x="1150" y="155" as="sourcePoint" />
            <mxPoint x="500" y="100" as="targetPoint" />
            <mxPoint as="offset" />
          </mxGeometry>
        </mxCell>
        <mxCell id="RyfOZX6px8sIg2oKjkJr-38" value="9. return" style="html=1;verticalAlign=bottom;endArrow=open;dashed=1;endSize=8;curved=0;rounded=0;" edge="1" parent="1">
          <mxGeometry relative="1" as="geometry">
            <mxPoint x="760" y="155" as="sourcePoint" />
            <mxPoint x="620" y="155" as="targetPoint" />
            <mxPoint as="offset" />
          </mxGeometry>
        </mxCell>
        <mxCell id="RyfOZX6px8sIg2oKjkJr-39" value="10. return" style="html=1;verticalAlign=bottom;endArrow=open;dashed=1;endSize=8;curved=0;rounded=0;exitX=0;exitY=0.25;exitDx=0;exitDy=0;entryX=1;entryY=0.25;entryDx=0;entryDy=0;" edge="1" parent="1" source="RyfOZX6px8sIg2oKjkJr-26" target="RyfOZX6px8sIg2oKjkJr-27">
          <mxGeometry relative="1" as="geometry">
            <mxPoint x="1030" y="150" as="sourcePoint" />
            <mxPoint x="1160" y="150" as="targetPoint" />
            <mxPoint as="offset" />
          </mxGeometry>
        </mxCell>
        <mxCell id="RyfOZX6px8sIg2oKjkJr-40" value="&lt;font size=&quot;1&quot;&gt;&lt;b style=&quot;font-size: 20px;&quot;&gt;FLOW &amp;nbsp;ENCRYPT DATA TO LOCAL STORAGE FROM API&lt;/b&gt;&lt;/font&gt;" style="text;html=1;align=center;verticalAlign=middle;whiteSpace=wrap;rounded=0;" vertex="1" parent="1">
          <mxGeometry x="370" y="-120" width="560" height="30" as="geometry" />
        </mxCell>
      </root>
    </mxGraphModel>
  </diagram>
</mxfile>
